<?xml version="1.0" encoding="utf-8"?>
<!-- Generator: Adobe Illustrator 16.0.0, SVG Export Plug-In . SVG Version: 6.00 Build 0)  -->
<!DOCTYPE svg PUBLIC "-//W3C//DTD SVG 1.1//EN" "http://www.w3.org/Graphics/SVG/1.1/DTD/svg11.dtd">
<svg version="1.1" id="Layer_1" xmlns="http://www.w3.org/2000/svg" xmlns:xlink="http://www.w3.org/1999/xlink" x="0px" y="0px"
	 width="672.007px" height="723.671px" viewBox="0 0 672.007 723.671" enable-background="new 0 0 672.007 723.671"
	 xml:space="preserve">
<g>
	<g>
		<path fill="#00548E" d="M300.297,171.451l1.171,29.249c1.727,36.356,43.035,66.876,81.193,92.017
			c37.938,24.975,42.552,41.246,42.594,41.405l-0.042-0.328l2.036,9.942l7.994-5.996c0.117-0.083,9.996-7.683,26.122-15.773
			c2.939-1.482,4.665-4.4,4.665-7.807c0-4.768,0-14.583-65.295-79.858c-31.445-31.464-63.341-60.918-63.631-61.25l-1.15-1.026
			l-33.932-9.036L300.297,171.451z M220.996,22.502L220.996,22.502c-8.584,1.805-13.697,8.008-13.412,16.143
			c0.369,9.941,8.586,20.129,17.211,21.318l5.793,0.74c8.749,1.191,17.045,2.339,23.641,3.572
			c11.709,2.222,26.248,5.054,35.473,7.642c22.121,6.081,63.178,21.979,77.801,31.138c7.125,4.476,11.752,10.146,12.075,14.83
			l1.729,24.892l20.908-46.335l-18.586-29.66l-0.924-0.698c-1.974-1.521-49.093-36.272-144.334-42.886l-4.291-0.491
			C230.175,22.131,225.72,21.511,220.996,22.502"/>
		<path fill="#00548E" d="M505.201,95.661l-33.154,0.532l-122.266,40.709v74.275l24.258-1.522l0.26-6.079l0.164-4.027
			c2.389-20.13,35.615-28.797,67.801-37.176c17.336-4.52,35.246-9.199,49.092-15.855c11.68-5.628,18.426-14.952,18.938-26.209
			c0,0.123,1.251-17.912,1.251-17.912l0.471-6.817L505.201,95.661z"/>
		<path fill="#00548E" d="M37.721,84.158l-26.679,8.628l-0.367,27.687c1.973,67.617,73.057,148.293,207.916,233.328
			c24.897,15.69,51.574,29.125,77.395,42.103l25.795,13.107c43.319,22.349,230.594,81.29,268.329,19.926
			c3.241-5.261,4.971-11.134,5.047-17.419c0.251-7.726,0.457-9.165,1.767-34.18l-9.627-6.532
			c-1.196,0.163-117.449,17.255-316.556-59.029C167.57,272.261,111.5,213.843,82.644,171.861
			C51.383,126.39,44.397,89.704,44.317,89.293L43.31,83.79L37.721,84.158z"/>
		<path fill="#B5CB8B" d="M270.967,54.171c8.032,0.864,8.38,0.948,13.804,2.462l2.402,0.659
			c24.732,6.824,66.318,20.872,80.164,29.54c3.082,1.887,6.701,4.926,6.739,8.502c0.042,3.697-3.758,8.502-9.841,12.444
			c-6.65,4.314-13.389,8.258-19.896,12.037c-21.879,12.65-40.733,23.621-43.383,42.475c-5.71,40.341,23.063,67.123,55.701,93.249
			c3.698,2.998,8.711,6.451,14.564,10.437c15.857,10.882,48.898,33.518,42.597,45.553c-8.069,15.324-56.909,4.148-118.74-27.191
			c-6.101-3.08-11.314-6.207-15.563-9.205c-2.732-1.973-5.219-4.396-5.777-4.929c-0.924-1.23-2.851-4.026-3.614-6.201
			c-6.734-19.514-20.74-73.325-21.03-115.064v-1.93c0-49.417,12.033-84.166,13.763-88.893
			C265.073,54.214,268.873,53.968,270.967,54.171 M16.568,63.909c-3.657,8.663-5.465,18.152-5.465,28.299
			c0,25.966,11.811,56.115,34.734,87.707c33.52,46.254,89.469,94.437,161.788,139.42c18.587,11.544,67.633,40.79,121.058,62.151
			c21.957,8.791,78.149,28.058,133.687,38.037c70.327,12.654,113.566,5.673,128.5-20.74c28.012-49.582-49.134-95.677-90.564-120.447
			l-16.406-10.021c-10.845-7.064-23.045-14.338-34.835-21.32c-37.383-22.019-79.715-47.035-77.473-68.726
			c1.6-15.239,31.879-23.167,63.9-31.546c18.539-4.85,37.68-9.821,55.268-17.046c18.031-7.398,22.432-18.652,22.881-26.827
			c1.133-19.595-18.98-37.875-36.563-47.609c-39.142-21.647-104.684-37.548-123.824-41.945
			c-20.917-4.721-56.876-8.418-83.167-11.087l-8.195-0.865C217.462-3.215,43.188,0.687,16.568,63.909"/>
		<path fill="#61A9D6" d="M258.15,265.317c-6.898-20.047-21.297-75.379-21.584-118.393c0-0.695,0-1.351,0-2.008
			c0-55.664,14.644-93.334,14.807-93.619c5.463-10.188,15.61-9.943,18.592-9.572c8.871,0.902,9.631,1.109,15.525,2.749l2.363,0.659
			c18.918,5.218,66.113,20.213,82.895,30.726c9.593,6,11.608,12.695,11.646,17.295c0.104,7.56-5.114,15.157-14.582,21.281
			c-6.859,4.479-13.725,8.459-20.354,12.279c-19.493,11.337-36.316,21.116-38.289,34.959c-4.93,34.915,20.563,58.576,51.904,83.635
			c3.409,2.714,8.297,6.04,13.926,9.9c23.886,16.435,56.625,38.863,45.928,59.074c-16.656,31.711-98.345-5.342-132.705-22.76
			c-6.512-3.325-12.2-6.692-16.864-9.939c-2.649-1.929-6.059-4.969-7.331-6.409C262.814,274.024,259.484,269.175,258.15,265.317
			 M24.108,65.839L24.108,65.839c-11.544,27.4-1.563,64.986,28.094,105.818c32.721,45.188,87.663,92.467,158.833,136.71
			c18.381,11.42,66.751,40.259,119.416,61.33c42.312,16.924,219.744,74.022,249.247,21.811
			c22.961-40.665-48.476-83.346-86.882-106.27l-16.742-10.271c-10.644-6.98-22.756-14.126-34.444-21.074
			c-42.026-24.81-85.484-50.482-82.528-78.787c2.367-22.508,34.443-30.888,71.684-40.585c18.154-4.767,36.967-9.653,53.879-16.596
			c10.475-4.272,16.016-10.27,16.448-17.788c0.714-11.952-11.831-27.152-31.224-37.914c-37.928-20.99-102.239-36.52-121.095-40.832
			c-20.232-4.603-55.868-8.256-81.895-10.887l-8.212-0.864C203.042,3.89,46.597,12.438,24.108,65.839"/>
	</g>
	<path id="path9883" fill="#00548E" d="M282.943,465.737l-0.52,0.088c-0.949,0.151-1.995,0.117-3.107,0.063
		c-2.611-0.117-5.567-0.26-7.91,2.414c-2.46,2.784-2.846,7.587-3.141,11.118l-0.269,2.515c-2.103,13.208-4.975,28.616-7.759,43.529
		c-2.535,13.641-4.943,26.5-6.398,35.858l-1.598,9.813c-1.089,6.806-2.157,13.263-2.601,17.331l-0.345,3.148
		c-0.583,4.887-1.08,9.132-0.108,13.242l0.052,0.223l0.149,0.201c2.483,3.687,5.051,4.819,7.631,3.363
		c2.244-1.272,2.708-4.934,3.487-10.996l1.282-8.804c1.576-9.132,6.249-35.158,10.673-58.232
		c-0.334,5.449-0.646,11.566-0.939,18.851c-0.289,7.607-0.432,13.653-0.432,18.994c0,7.893,0.323,14.245,1.016,21.886
		c0.431,4.921,0.982,11.051,4.846,12.563l3.549,1.658c2.99,1.553,6.076,3.145,9.915,2.548l0.153-0.037l0.162-0.067
		c1.953-0.849,3.163-2.569,4.143-5.903l3.931-12.721l3.161-10.144c1.932-6.424,8.439-26.753,14.447-44.999
		c-3.988,26.014-8.08,69.463-9.344,86.35c-0.061,0.755-0.086,1.671-0.086,2.699c0,2.717,0.325,6.096,1.618,8.418
		c0.648,1.142,1.608,1.855,2.807,2.104c2.31,0.475,5.46-0.844,9.604-4.001c-0.045,0.008,1.727-0.987,1.727-0.987
		c2.729-1.465,6.863-3.656,5.998-8.157c-1.014-5.307-0.615-22.798,0.08-29.31c3.215-30.782,7.801-59.513,14.031-87.797l1.434-5.458
		c1.012-3.519,1.981-6.865,1.79-9.854c-0.172-3.119-3.247-5.159-8.417-5.613h-0.098l-7.049,0.323
		c-3.063,0.08-6.268,0.139-9.57,0.617c-3.865,0.538-4.801,5.026-5.794,9.8l-0.714,3.203c-0.713,2.885-4.735,15.085-9.387,29.204
		c-4.846,14.707-10.751,32.643-14.916,46.02c-0.019-1.864-0.05-3.687-0.05-5.622c0-25.128,1.879-53.262,3.882-69.081l1.847-13.288
		c0.8-5.403,1.339-9.072,1.339-11.654c0-2.121-0.367-3.493-1.284-4.488c-2.666-2.591-7.415-1.818-12.919-0.937"/>
	<path id="path9887" fill="#00548E" d="M353.908,511.083L353.908,511.083l-0.454,0.089c-2.922,0.528-6.528,1.184-8.34,3.4
		c-2.118,2.867-1.64,6.541-1.144,10.412c0.262,1.931,0.482,3.871,0.482,5.915c-0.009,23.868-1.554,48.278-3.031,71.865
		l-1.132,18.477c-0.347,5.513-0.604,9.862,2.278,12.864l0.088,0.051l0.073,0.079c1.147,0.869,2.235,2.049,3.39,3.275
		c2.839,3.035,6.044,6.453,10.709,5.407l0.103-0.033l0.063-0.034c14.75-5.727,53.813-19.972,62.557-22.327l0.742-0.193
		c2.731-0.726,4.554-1.196,5.84-4.664l0.17-0.47c0.584-1.42,1.545-3.813,0.055-5.483c-1.867-2.213-4.511-1.78-6.108-1.524
		c-6.82,1.23-44.566,11.915-59.171,17.504c-0.375,0.159-0.751,0.159-0.883,0.143c-0.018-0.076-0.018-0.227-0.018-0.227
		c-0.044-0.898-0.061-1.78-0.061-2.679c0-2.364,0.121-4.782,0.262-7.306c0,0,0.228-6.088,0.259-6.764
		c4.379-1.587,8.139-3.254,11.73-4.849c6.517-2.901,12.148-5.438,20.123-6.818l0.466-0.076l1.111-1.284
		c1.336-1.575,2.623-3.086,2.623-5.27c0-0.546-0.088-1.121-0.25-1.759l-0.05-0.16l-0.088-0.13c-0.581-1.058-1.423-2.153-3.181-2.515
		c-5.762-1.024-15.035,1.545-21.175,3.237l-3.044,0.831c-0.008,0-3.396,0.961-3.396,0.961c-1.428,0.425-3.252,0.953-4.068,1.012
		c0.107-2.544,0.861-18.309,0.861-18.309c0.563-10.026,1.133-20.333,1.133-30.531c0-2.591-0.035-5.168-0.104-7.75
		c0-0.227,0.126-2.801,0.126-2.801c0.071-2.431,0.153-4.698,1.266-6.176c10.586-3.309,18.998-5.437,24.945-6.298l5.548-0.705
		c3.873-0.429,6.011-0.655,7.487-2.255c1.111-1.154,1.684-2.767,1.684-4.626c0-0.345-0.043-0.685-0.077-1.054
		c-0.281-1.734-1.136-2.478-1.747-3.031l-0.722-0.647l-0.444-0.096c-17.137-1.974-31.648,0.323-47.482,3.313"/>
	<path id="path9891" fill="#00548E" d="M502.635,531.803c3.401,15.874,6.701,30.367,10.79,43.92
		c-6.604,0.453-13.996,1.078-21.043,2.204c0.094-0.685,0.216-1.537,0.216-1.612C495.211,563.077,498.642,546.456,502.635,531.803
		 M426.179,542.53c1.1-11.55,2.418-25.757,2.685-36.476c13.532,2.893,29.257,13.984,35.872,23.062
		c2.191,3.002,2.814,5.127,2.814,7.457c0,0.516-0.033,1.037-0.076,1.6c-0.516,5.466-6.278,9.463-10.598,11.986
		c-10.822,6.364-20.934,8.451-31.992,10.248c-0.02-0.223-0.047-0.579-0.047-1.096c0-0.886,0.055-2.246,0.229-4.328L426.179,542.53
		L426.179,542.53z M410.437,480.93l-0.008,0.018c-1.516,2.292-1.237,4.686-0.955,6.801l0.197,2.377
		c-0.009,8.9-0.929,18.418-1.672,26.093l-2.117,22.966c-1.643,17.112-3.668,38.415-4.76,58.896c-0.216,3.8,0.94,5.676,1.941,6.57
		c1.061,0.957,2.471,1.339,4.066,1.079c2.387-0.378,4.73-0.937,7.008-1.503l3.818-0.903l0.229-0.15l0.594-0.395
		c1.457-0.911,3.637-2.306,3.637-5.248v-0.08c0.17-4.048,0.508-11.168,1.582-25.435c1.957-0.13,4.362-0.344,6.636-0.714
		c1.644,5.66,2.024,16.03,2.249,23.066l0.195,4.833l0.008,0.407c0.441,8.128,1.724,32.911,11.537,38.982
		c5.242,3.245,10.326,4.261,15.072,3.031c5.84-1.516,11.061-6.378,15.553-14.443c4.145-7.477,7.66-16.948,11.869-28.604
		c-0.053,0.105,0.851-2.397,0.851-2.397c-0.013,0.089,0.313-1.024,0.409-1.271c0.986-1.437,6.661-2.439,13.209-3.569l1.264-0.23
		c6.764-1.167,13.717-2.397,15.098-1.944c0.365,0.651,1.21,2.914,1.961,4.963c3.581,9.846,7.469,19.632,12.184,21.743
		c1.201,0.529,2.355,0.567,3.489,0.122l0.206-0.075l0.168-0.131c0.864-0.734,2.02-1.436,3.106-2.095l2.011-1.264l2.427-1.293
		c2.301-1.092,5.16-2.439,4.631-5.403c-0.336-1.944-1.138-2.855-2.062-3.896c-0.722-0.822-1.532-1.763-2.48-3.526
		c-5.983-12.318-10.186-27.663-13.989-42.337l-0.73-2.838c-4.145-15.971-8.04-31.057-9.917-49.189v-0.084l-0.033-0.088
		c-0.878-3.594-3.325-4.22-5.366-4.37c-11.037-0.811-16.717,0.382-17.872,3.786c-6.322,27.013-12.967,67.217-16.799,80.468
		c-1.854,6.348-7.512,28.881-14.916,39.62c-0.936,1.335-1.723,2.478-3.518,2.771c-1.014,0.163-2.007-0.215-3.055-1.205
		c-3.826-3.539-4.584-10.257-5.275-16.181l-0.237-1.897c-0.755-6.177-0.506-12.705-0.767-19.023
		c-0.313-6.722-0.646-13.675-1.52-20.313c10.043-3.686,23.678-8.771,29.644-22.768c1.1-3.271,1.511-6.495,1.511-9.526
		c0-6.97-2.235-12.961-3.916-16.513c-8.32-17.394-30.823-30.106-38.763-33.541c-5.237-2.268-9.064-3.119-11.853-3.745l-1.412-0.311
		h0.008l-1.295-0.336c-4.371-1.15-10.962-2.847-13.088,0.239"/>
	<path id="path9895" fill="#00548E" d="M554.948,506.184c-1.675,0.555-2.809,2.569-3.237,4.605c-0.088,0.361-0.13,0.735-0.163,1.083
		c-0.311,3.813-1.05,8.279-2.507,15.313c-0.676,3.128-1.498,6.797-2.502,11.126c-0.109,0.474-0.323,1.465-0.613,2.893
		c-2.427,11.566-4.315,21.345-4.854,24.313c-0.012,0.034-0.499,2.998-0.499,2.998c-0.517,2.893-1.079,4.887-1.121,8.061
		c0.269,3.586,3.459,11.924,5.235,12.57l0.117,0.038l0.105-0.013c2.166,0.071,3.338-1.948,3.648-3.493
		c0.017-0.109,0.033-0.193,0.059-0.29c1.415-4.728,1.675-9.14,2.96-15.173c0.307-1.444,0.604-2.763,0.873-3.875
		c1.134-4.812,1.239-5.105,5.122-20.308c1.201,20.921,4.203,49.713,5.681,56.267l0.495,2.271c1.49,6.751,3.162,14.389,7.016,18.003
		c3.896,3.716,9.141,4.983,16.034,3.917l0.117-0.017l0.089-0.025c1.943-0.654,3.271-2.385,3.799-4.857
		c0.034-0.097,0.051-0.214,0.08-0.344c0.555-5.504,2.053-18.133,6.264-41.645c0.181-0.97,0.5-2.553,0.928-4.614
		c1.999-9.425,6.398-28.843,10.383-45.208c0.009,0,0.009-0.018,0.009-0.034c0.042-0.201,0.139-0.886-0.172-1.726
		c-0.479-1.822-2.045-3.519-3.725-3.972l-0.15-0.046h-0.144c-2.015-0.088-4.001,1.478-4.735,3.035
		c-2.989,6.407-6.462,20.115-9.022,30.115l-1.058,4.156c-1.554,6.063-5.308,22.088-8.385,36.002
		c-4.144-23.507-5.126-64.123-5.126-74.258l0.155-3.913c0.126-2.099,0.235-4.093-0.097-6.188c-0.588-3.56-2.615-4.35-4.114-4.916
		l-0.412-0.164c-1.456-0.462-13.296-2.741-16.541-1.684"/>
	<path id="path9899" fill="#00548E" d="M631.372,525.514l-0.097,0.041l-0.101,0.034c-8.417,3.787-14.342,9.563-18.675,18.142
		c-5.344,10.605-8.992,25.026-9.249,36.74c-0.281,12.629,2.826,23.066,9.829,32.861c5.462,7.695,14.614,12.801,25.694,14.409
		c9.421,1.381,19.581-6.617,30.148-23.734c0.063-0.071,0.693-1.238,0.693-1.238c1.528-2.867,2.62-4.95,2.351-9.019
		c-0.075-1.083-0.936-10.471-5.944-10.664c-7.318-0.269-23.537-4.933-34.994-4.521l-0.529,0.029l-0.369,0.403
		c-1.112,1.234-1.684,2.494-1.31,4.883c0.629,2.759,2.305,4.538,4.513,4.832c0,0,17.667,6.499,22.802,7.242
		c-1.377,3.04-3.031,6.021-5.374,9.652c-5.311,8.25-10.92,11.76-16.172,10.173c-4.165-1.247-7.138-4.425-8.595-9.232
		c-6.6-21.807,0.928-49.39,8.389-62.036c3.019-5.059,7.507-10.017,11.134-8.707c1.017,0.433,2.301,2.662,2.981,5.155
		c0.411,1.545,0.625,3.325,0.84,5.206c0.608,5.215,1.293,11.168,6.927,14.783c4.014,2.59,7.428,3.216,9.908,1.801l0.105-0.059
		l0.122-0.088c1.264-1.181,1.607-2.872,1.965-4.678l0.256-1.276c1.662-7.343-0.915-14.043-3.011-19.404l-0.294-0.714
		c-2.049-5.387-6.352-6.542-10.139-7.578l-3.431-1.054c-7.838-3.25-14.312-4.019-20.375-2.377"/>
	<path id="path9903" fill="#00548E" d="M239.347,484.587c3.408,13.082,3.018,26.731,1.368,43.202
		c-1.965,19.531-8.729,42.854-19.466,50.839c-6.077,4.399-12.129,3.019-17.459-3.997c-5.257-6.924-7.146-21.429-7.146-35.628
		c0-8.851,0.725-17.596,1.846-24.313c2.666-16.181,10.459-45.07,22.791-51.023C231.695,461.668,237.069,475.884,239.347,484.587
		 M172.83,512.25c3.258,13.12,2.707,26.761,0.873,43.219c-2.18,19.523-9.239,42.74-20.019,50.608
		c-6.151,4.362-12.184,2.905-17.448-4.174c-4.953-6.692-6.745-20.32-6.745-33.961c0-9.455,0.864-18.897,2.137-26.063
		c2.828-16.144,10.976-44.936,23.373-50.742C165.446,489.251,170.661,503.527,172.83,512.25 M209.886,438.329l-0.143,0.076
		l-1.455,1.092l-3.247,2.603c-10.891,10.56-19.847,29.104-24.573,50.855c0,0-0.303,1.596-0.626,3.237
		c-3.528-7.498-7.079-11.038-12.452-14.858c-5.461-8.535-12.864-20.048-23.503-15.673l-0.13,0.055l-1.556,1.134l-3.193,2.523
		c-10.995,10.425-20.169,28.868-25.144,50.587l-0.982,3.715l-1.521,6.021c-1.048,4.093-2.796,10.933-3.778,23.125
		c-1.36,16.986,2.754,31.093,6.066,42.412l1.605,5.676c2.439,6.559,5.364,11.643,8.765,15.245
		c10.337,11.021,28.087,11.634,39.57,1.381c8.645-7.704,13.899-15.861,18.142-28.205c1.045-3.073,2.038-6.713,2.989-10.987
		c2.06,4.392,4.401,7.998,7.003,10.693c10.467,10.879,28.23,11.311,39.582,0.949c8.547-7.801,13.704-16.034,17.814-28.444
		c4.006-12.108,6.574-29.246,6.574-46.091c0-13.296-1.609-26.396-5.332-36.677c-5.223-15.14-9.279-19.871-16.814-25.027
		C228.002,445.244,220.462,433.816,209.886,438.329"/>
	<path id="path9907" fill="#00548E" d="M84.064,581.386c1.996,1.23,3.086,2.708,3.302,4.413c0.077,0.625,0.109,1.222,0.109,1.822
		c0,12.746-17.128,23.137-35.03,26.383c-0.711-4.866-1.056-10.656-1.423-17.336c0,0-0.81-12.498-0.928-14.278
		C65.492,576.898,78.462,577.973,84.064,581.386 M86.524,507.121c4.694,3.648,7.427,7.931,7.706,12.091
		c0.009,0.277,0.009,0.513,0.009,0.781c0,13.027-19.727,34.297-45.518,42.808c-2.062-25.636-3.356-40.582-5.29-60.483v-0.033
		c-0.042-0.365-0.059-0.701-0.059-0.995c0-1.196,0.334-1.885,0.498-1.973c19.4-3.59,34.756,1.671,42.658,7.8 M23.333,472.714
		l0.086-0.009l-1.381,0.315c-17.232,3.884-21.238,6.008-21.906,7.993c-0.82,2.397,2.234,5.085,7.34,9.207
		c1.918,1.546,4.832,3.876,5.092,4.694l-0.061-0.248c0.376,3.115,3.409,3.292,5.396,3.389c2.34,0.13,2.868,0.344,2.957,1.146
		c4.002,35.653,6.366,73.226,8.662,109.521l0.553,8.515c0.193,2.305,0.151,4.757,0.117,7.12c-0.053,5.299-0.117,9.875,2.275,11.676
		c3.498,2.688,7.749,0.761,13.609-1.889c3.172-1.457,6.766-3.086,11.082-4.413c30.195-9.744,45.465-25.992,45.465-48.336
		c0-1.066-0.042-2.146-0.119-3.258c-0.605-9.451-6.409-17.201-15.563-21.147c9.38-8.41,22.898-23.646,22.898-41.506
		c0-1.146-0.05-2.275-0.172-3.435c-1.271-13.796-8.137-25.141-19.779-32.735c-20.007-13.082-48.529-12.582-66.551-6.596"/>
	<path id="path9911" fill="#010101" d="M68.11,716.382c-1.965,0-3.002-0.81-3.002-2.405c0-2.217,1.855-9.694,5.999-22.143h-0.344
		c-3,0-4.501-1.289-4.501-2.657c0-1.264,2.191-2.074,6.453-2.671c7.62-28.805,18.801-42.072,25.265-42.072
		c1.154,0,2.189,1.146,3.215,3.573c2.308,2.657,3.809,4.026,3.809,5.189c0,1.154-1.598,2.3-2.763,2.3
		c-2.536,0-1.976-3.463-4.618-3.463c-6.572,0-10.381,11.311-18.463,34.129c0.71,0,1.393,0.117,2.104,0.117
		c4.726,0,5.752,0.597,5.752,2.658c0,2.893-2.645,3.002-8.405,3.002h-1.276C70.763,710.84,74.333,716.382,68.11,716.382"/>
	<path id="path9915" fill="#010101" d="M88.292,682.375c0-2.179,2.997-5.312,6.453-5.312c1.616,0,2.88,1.037,2.88,2.427
		c0,0.706-0.227,1.848-0.57,3.111l3.808,1.163c0.571-1.058,1.381-1.855,2.429-2.662c0.67-0.23,1.262-0.349,1.48-0.349
		c1.735,0,4.034,1.504,4.034,3.011c0,1.146-0.798,2.179-2.408,3.447c-4.964,8.304-7.261,15.463-7.261,20.878
		c0,1.944,0.797,3.099,1.607,3.099c2.18,0,5.299-3.442,8.763-10.5c1.144-2.288,1.618-4.026,2.655-4.026
		c0.918,0,2.06,0.928,2.06,1.965c0,1.033-1.142,3.703-3.571,7.604c-4.144,6.692-6.906,9.824-11.17,9.824
		c-4.262,0-6.818-2.901-6.818-7.523c0-4.824,1.629-10.941,4.736-18.666l-3.107-0.928c-3.572,9.912-6.226,15.114-8.645,15.114
		c-0.81,0-1.511-0.584-1.511-1.726c0-0.819,3.464-6.475,6.119-17.42C88.972,684.088,88.292,683.413,88.292,682.375"/>
	<path id="path9919" fill="#010101" d="M124.721,686.062c-0.573-1.264-1.835-1.974-3.358-1.974c-2.286,0-4.596,1.855-6.904,5.546
		c-4.607,7.134-6.8,14.867-6.8,19.263c0,5.987,3.464,9.337,8.418,9.337c6.68,0,12.098-6.121,15.442-17.998
		c3.346-0.575,6.463-2.863,9.228-7.041c1.382-1.369,2.083-2.511,2.083-3.787c0-1.037-0.703-1.629-1.848-1.629
		c-2.082,0-3.225,5.416-8.653,7.154c-0.108-5.882-2.527-9.099-5.634-9.099C125.983,685.834,125.41,685.944,124.721,686.062
		 M114.338,709.468c0-8.418,6.798-18.919,10.273-18.919c1.251,0,2.083,1.146,2.083,3.241c0,8.418-6.117,19.242-9.928,19.242
		C115.138,713.033,114.338,711.882,114.338,709.468"/>
	<path id="path9923" fill="#010101" d="M162.774,707.276c0-2.641,1.857-7.842,4.62-15.798
		c-8.527,14.408-10.967,23.179-15.346,23.179c-2.082,0-3.563-1.28-3.563-3.581c0-2.062,1.145-6.784,2.85-14.526
		c-8.288,13.016-8.967,19.838-12.787,19.838c-3.563,0-5.061-1.503-5.061-4.954c0-2.419,2.535-9.333,6-21.219
		c1.144-4.048,1.725-6.004,4.025-6.004c1.963,0,4.262,1.956,4.262,4.266c0,1.612-1.726,2.325-3.107,4.849
		c-0.572,1.037-2.882,7.146-5.645,18.439c9.205-16.94,14.634-25.472,17.751-25.472c1.382,0,2.31,1.15,2.644,3.342l-0.916,1.713
		c-1.952,5.319-3.346,10.979-4.264,16.966c9.216-17.872,15.096-26.878,17.871-26.878c0.92,0,1.728,0.831,2.429,2.435
		c0.928,0.803,1.371,1.608,1.371,2.297c0,0.823-0.79,2.074-1.954,3.804c-4.393,6.696-6.453,14.783-6.453,16.853
		c0,1.705,0.572,2.527,1.607,2.527c2.072,0,4.035-3.002,7.145-8.3c1.975-3.347,2.548-5.538,2.999-5.538
		c0.831,0,2.666,1.621,2.666,2.767c0,0.92-1.284,4.048-4.154,8.544c-3.227,5.06-6.001,7.717-8.524,7.717
		c-1.512,0-3.013-1.024-4.608-3.106C163.357,710.266,162.774,709.014,162.774,707.276"/>
	<path id="path9927" fill="#010101" d="M241.853,654.922c0,3.119-2.297,5.428-4.37,5.428c-2.427,0-2.88-2.427-3.347-5.882
		c-0.225-1.726-2.188-3.346-4.963-3.346c-4.607,0-10.252,4.026-16.479,12.335c-8.999,11.881-13.594,26.182-13.594,35.636
		c0,7.83,4.152,11.979,10.357,11.979c4.381,0,8.999-1.717,14.18-4.837c4.726-2.893,7.047-5.546,9-5.546
		c0.583,0,1.154,0.697,1.154,1.642c0,1.465-1.844,4.022-5.763,7.142c-6.216,4.941-12.572,7.368-17.06,7.368
		c-12.346,0-20.181-6.902-20.181-17.986c0-8.548,5.191-23.868,17.181-41.85c6.572-9.816,12.098-14.762,16.143-14.762
		c2.299,0,5.061,1.037,8.181,3.237C238.531,647.188,241.853,651.123,241.853,654.922"/>
	<path id="path9931" fill="#010101" d="M248.388,706.231c-0.131,0.811-0.131,1.612-0.131,2.301c0,4.392,1.986,6.822,5.213,6.822
		c2.656,0,4.728-1.729,7.154-4.85c4.49-5.76,6.218-9.916,6.218-10.617c0-0.798-0.919-2.515-1.855-2.515
		c-0.683,0-1.146,1.381-2.981,3.9c-4.045,5.65-6.354,8.661-7.607,8.661c-0.829,0-1.045-0.466-1.045-1.512
		c0-1.596,1.264-6.563,4.607-14.068c1.952-4.384,3.57-6.789,3.57-8.074c0-1.607-1.845-2.977-4.607-2.977
		c-1.047,0-1.963,0.227-3.109,0.571c-1.615-2.191-3.236-3.354-5.426-3.354c-3.453,0-8.311,3.69-12.572,11.18
		c-4.035,7.054-5.869,13.271-5.869,18.234c0,4.253,2.426,7.023,5.762,7.023C239.863,716.958,244.482,713.376,248.388,706.231
		 M252.089,688.467c0,0.466-2.094,7.859-7.965,16.622c-3.216,4.845-6.108,7.146-7.381,7.146c-0.701,0-0.928-0.361-0.928-1.272
		c0-2.065,1.402-7.372,5.191-14.409c3.583-6.692,7.047-9.799,9.344-9.799C251.388,686.754,252.089,687.443,252.089,688.467"/>
	<path id="path9935" fill="#010101" d="M265.776,682.375c0-2.179,2.989-5.312,6.464-5.312c1.609,0,2.869,1.037,2.869,2.427
		c0,0.706-0.214,1.848-0.561,3.111l3.811,1.163c0.57-1.058,1.359-1.855,2.405-2.662c0.703-0.23,1.272-0.349,1.491-0.349
		c1.735,0,4.045,1.504,4.045,3.011c0,1.146-0.809,2.179-2.416,3.447c-4.955,8.304-7.264,15.463-7.264,20.878
		c0,1.944,0.8,3.099,1.607,3.099c2.203,0,5.312-3.442,8.763-10.5c1.154-2.288,1.62-4.026,2.666-4.026
		c0.904,0,2.073,0.928,2.073,1.965c0,1.033-1.166,3.703-3.585,7.604c-4.154,6.692-6.917,9.824-11.188,9.824
		c-4.254,0-6.789-2.901-6.789-7.523c0-4.824,1.598-10.941,4.728-18.666l-3.13-0.928c-3.573,9.912-6.216,15.114-8.635,15.114
		c-0.808,0-1.498-0.584-1.498-1.726c0-0.819,3.463-6.475,6.108-17.42C266.464,684.088,265.776,683.413,265.776,682.375"/>
	<path id="path9939" fill="#010101" d="M286.062,672.005c-3.333,0-5.073-1.154-5.073-3.011c0-2.191,5.418-2.645,16.599-3.463
		c1.973-6.344,3.01-9.099,5.891-9.099c2.086,0,3.477,1.024,3.477,2.179c0,0.467-1.391,2.415-2.439,6.575
		c4.383-0.349,7.844-0.466,10.273-0.466c6.574,0,9.562,0.811,9.562,3.468c0,1.15-1.154,1.268-3.692,1.268
		c-4.496,0-10.5,0.814-18.105,1.264c-7.488,19.834-9.917,32.991-9.917,37.479c0,2.188,0.829,3.342,1.974,3.342
		c1.832,0,4.381-2.426,7.144-7.146c3.119-5.303,3.69-9.102,4.726-9.102c1.383,0,2.764,1.032,2.764,2.187
		c0,0.803-1.954,6.445-7.261,13.591c-2.421,3.342-5.536,5.093-8.765,5.093c-3.451,0-6.226-3.128-6.226-9.119
		c0-6.108,2.534-17.99,8.298-35.519C290.334,671.875,287.217,672.005,286.062,672.005"/>
	<path id="path9943" fill="#010101" d="M319.266,686.062c-0.569-1.264-1.833-1.974-3.333-1.974c-2.313,0-4.619,1.855-6.918,5.546
		c-4.605,7.134-6.82,14.867-6.82,19.263c0,5.987,3.467,9.337,8.439,9.337c6.682,0,12.089-6.121,15.443-17.998
		c3.342-0.575,6.453-2.863,9.227-7.041c1.379-1.369,2.069-2.511,2.069-3.787c0-1.037-0.69-1.629-1.833-1.629
		c-2.092,0-3.236,5.416-8.652,7.154c-0.121-5.882-2.538-9.099-5.645-9.099c-0.703,0-1.272,0.109-1.976,0.228 M308.898,709.468
		c0-8.418,6.811-18.919,10.266-18.919c1.259,0,2.08,1.146,2.08,3.241c0,8.418-6.119,19.242-9.93,19.242
		C309.708,713.033,308.898,711.882,308.898,709.468"/>
	<path id="path9947" fill="#010101" d="M343.6,686.062c-0.567-1.264-1.845-1.974-3.345-1.974c-2.298,0-4.595,1.855-6.916,5.546
		c-4.619,7.134-6.811,14.867-6.811,19.263c0,5.987,3.465,9.337,8.429,9.337c6.669,0,12.106-6.121,15.454-17.998
		c3.342-0.575,6.453-2.863,9.229-7.041c1.377-1.369,2.082-2.511,2.082-3.787c0-1.037-0.705-1.629-1.859-1.629
		c-2.082,0-3.237,5.416-8.641,7.154c-0.132-5.882-2.537-9.099-5.645-9.099C344.866,685.834,344.291,685.944,343.6,686.062
		 M333.219,709.468c0-8.418,6.82-18.919,10.276-18.919c1.262,0,2.082,1.146,2.082,3.241c0,8.418-6.13,19.242-9.917,19.242
		c-1.62,0-2.438-1.15-2.438-3.564"/>
	<path id="path9951" fill="#010101" d="M358.021,716.055c-2.539,0-4.834-1.642-4.834-4.983c0-1.717,1.604-12.671,6.453-24.195
		c1.15-2.788,1.95-3.821,4.246-3.821c1.524,0,3.467,1.033,3.467,2.536c0,0.928-4.844,7.96-7.371,22.499
		c9.336-17.998,14.988-26.878,18.098-26.878c2.202,0,4.961,1.843,4.961,4.048c0,1.498-1.862,2.183-2.318,2.758
		c-0.331,0.453-1.359,3.002-2.75,7.394c-2.084,6.919-2.666,11.869-2.666,13.359c0,1.616,0.473,2.544,1.155,2.544
		c2.069,0,4.151-4.034,8.309-11.079c0.692-1.143,0.692-2.192,1.95-2.192c0.707,0,2.42,1.395,2.42,2.192
		c0,0.453-2.882,8.296-8.418,13.955c-1.479,1.508-3.106,2.306-4.715,2.306c-3.806,0-6.108-3.115-6.108-8.989
		c0-2.653,0.559-6.692,1.728-12.213c-8.201,13.477-10.036,20.761-13.609,20.761"/>
	<path id="path9955" fill="#010101" d="M408.925,718.365c-0.809,3.808-0.69,5.307-1.963,5.307c-1.738,0-4.962-1.499-4.962-3.342
		c0-1.386,1.154-6.802,3.806-16.038c7.383-25.586,14.063-41.968,16.371-47.027c1.634-3.463,5.549-5.311,10.729-5.311
		c2.202,0,3.343,0.571,3.343,1.276c0,0.571-0.452,1.965-1.488,4.034c-1.273,4.955-1.617,9.917-1.617,15.086
		c0,12.569,1.152,24.216,3.573,35.17c4.496-19.716,6.558-26.278,10.229-36.313c3.701-10.047,4.62-14.992,8.902-14.992
		c1.48,0,2.406,0.789,2.406,1.62c0,0.571-0.564,1.835-1.596,3.678c-9.252,25.371-11.625,36.552-14.422,48.896
		c-0.787,3.338-1.024,7.956-6.108,7.956c-1.368,0-4.392-2.192-5.643-4.371c-0.679-1.163-5.069-16.395-5.069-39.322
		c0-2.872,0.117-6.705,0.344-11.429C416.881,688.279,411.465,706.731,408.925,718.365"/>
	<path id="path9959" fill="#010101" d="M454.589,700.584c1.146,1.146,2.324,1.62,3.464,1.62c5.181,0,12.228-8.774,12.228-18.905
		c0-3.8-0.928-3.229-5.42-4.623c-1.054-0.692-1.961-1.162-3.115-1.162c-1.965,0-3.919,1.389-5.548,3.702
		c-5.525,8.188-8.871,19.25-8.871,25.716c0,6.688,2.893,10.03,8.657,10.03c5.88,0,10.379-3.343,15.572-10.03
		c3.56-4.61,4.939-8.073,4.939-9.229c0-1.381-1.135-2.191-1.727-2.191c-0.808,0-1.262,1.369-2.544,3.8
		c-4.717,8.893-11.311,13.955-14.988,13.955c-2.303,0-3.442-2.313-3.442-6.57C453.794,704.631,454.021,702.67,454.589,700.584
		 M458.628,698.624c-1.266,0-2.179-1.256-2.179-3.455c0-3.12,4.127-10.501,6.329-10.501c0.69,0,1.396,0.823,1.396,1.747
		C464.175,691.599,461.173,698.624,458.628,698.624"/>
	<path id="path9963" fill="#010101" d="M471.082,672.005c-3.344,0-5.06-1.154-5.06-3.011c0-2.191,5.407-2.645,16.575-3.463
		c1.986-6.344,3.031-9.099,5.891-9.099c2.074,0,3.464,1.024,3.464,2.179c0,0.467-1.39,2.415-2.427,6.575
		c4.392-0.349,7.857-0.466,10.264-0.466c6.592,0,9.573,0.811,9.573,3.468c0,1.15-1.155,1.268-3.703,1.268
		c-4.479,0-10.491,0.814-18.099,1.264c-7.486,19.834-9.906,32.991-9.906,37.479c0,2.188,0.834,3.342,1.95,3.342
		c1.86,0,4.388-2.426,7.16-7.146c3.118-5.303,3.688-9.102,4.747-9.102c1.368,0,2.743,1.032,2.743,2.187
		c0,0.803-1.944,6.445-7.255,13.591c-2.416,3.342-5.535,5.093-8.785,5.093c-3.438,0-6.214-3.128-6.214-9.119
		c0-6.108,2.549-17.99,8.296-35.519C475.357,671.875,472.216,672.005,471.082,672.005"/>
	<path id="path9967" fill="#010101" d="M494.373,718.121c-2.658,0-6.571-2.989-6.571-8.082c0-3.93,1.382-11.289,4.963-19.59
		c1.608-3.816,2.645-5.533,4.61-5.533c1.727,0,3.809,1.499,4.249,3.682c-0.688,1.143-1.373,2.083-2.06,2.759
		c-4.285,10.025-5.421,17.172-5.421,19.359c0,1.049,0.229,1.641,0.692,1.641c2.421,0,6.1-8.426,13.035-25.035
		c0.454-0.453,0.79-0.688,1.264-0.688c2.646,0,5.193,1.734,5.193,3.002c0,0.676-4.609,6.806-4.609,17.638
		c0,1.386,0.214,2.074,0.772,2.074c2.217,0,7.523-9.211,11.327-26.408c-0.23-1.377-1.26-2.188-1.26-3.106
		c0-0.811,0.92-1.382,2.188-1.382c2.427,0,4.488,2.184,4.488,3.922c0,1.39-1.738,12.335-6.919,23.058
		c-3.333,6.797-6.238,10.144-9.824,10.144c-1.021,0-1.939-0.441-3.081-1.037c-2.326-0.345-3.464-2.771-3.464-7.264
		C500.935,714.536,497.256,718.121,494.373,718.121"/>
	<path id="path9971" fill="#010101" d="M540.951,686.062c-0.571-1.264-1.844-1.974-3.347-1.974c-2.288,0-4.605,1.855-6.902,5.546
		c-4.622,7.134-6.822,14.867-6.822,19.263c0,5.987,3.477,9.337,8.431,9.337c6.676,0,12.108-6.121,15.441-17.998
		c3.334-0.575,6.475-2.863,9.225-7.041c1.381-1.369,2.086-2.511,2.086-3.787c0-1.037-0.705-1.629-1.847-1.629
		c-2.083,0-3.237,5.416-8.653,7.154c-0.104-5.882-2.519-9.099-5.646-9.099C542.235,685.834,541.643,685.944,540.951,686.062
		 M530.584,709.468c0-8.418,6.784-18.919,10.248-18.919c1.264,0,2.083,1.146,2.083,3.241c0,8.418-6.117,19.242-9.917,19.242
		C531.378,713.033,530.584,711.882,530.584,709.468"/>
	<path id="path9975" fill="#010101" d="M553.407,682.375c0-2.179,3.011-5.312,6.475-5.312c1.587,0,2.858,1.037,2.858,2.427
		c0,0.706-0.222,1.848-0.558,3.111l3.795,1.163c0.575-1.058,1.382-1.855,2.427-2.662c0.672-0.23,1.26-0.349,1.482-0.349
		c1.738,0,4.06,1.504,4.06,3.011c0,1.146-0.823,2.179-2.423,3.447c-4.971,8.304-7.268,15.463-7.268,20.878
		c0,1.944,0.785,3.099,1.617,3.099c2.179,0,5.285-3.442,8.766-10.5c1.139-2.288,1.604-4.026,2.642-4.026
		c0.919,0,2.069,0.928,2.069,1.965c0,1.033-1.15,3.703-3.572,7.604c-4.152,6.692-6.907,9.824-11.189,9.824
		c-4.262,0-6.801-2.901-6.801-7.523c0-4.824,1.62-10.941,4.731-18.666l-3.111-0.928c-3.568,9.912-9.896,11.718-11.223,9.954
		c-0.462-0.63,1.944-2.33,1.944-3.48c0-0.798,2.603,0.44,5.23-10.5C554.087,684.088,553.407,683.413,553.407,682.375"/>
	<path id="path9979" fill="#010101" d="M573.471,718.805c-1.952,0-3.354-1.381-3.354-2.893c0-1.028,1.751-6.344,4.618-15.896
		c6.235-20.644,10.273-33.894,12.453-39.797c1.368-3.908,1.738-5.181,4.954-5.181c1.956,0,3.581,1.62,3.581,2.775
		c0,0.344-1.625,1.154-4.144,7.259c-3.023,7.154-6.218,17.185-9.8,30.561c10.014-8.641,14.754-13.376,17.873-13.376
		c2.297,0,3.325,0.227,3.325,1.045c0,1.499-5.76,4.618-14.636,13.465c1.503,10.617,3.682,15.916,6.012,15.916
		c2.18,0,4.72-4.022,9.086-11.411c0.714-1.256,1.037-2.18,1.855-2.18c0.458,0,1.835,0.924,1.835,2.07
		c0,0.798-1.608,5.76-6.109,11.298c-2.632,3.237-5.424,4.845-8.762,4.845c-4.963,0-7.368-4.618-10.723-14.526l-2.54,1.965
		C575.65,714.531,576.356,718.805,573.471,718.805"/>
</g>
</svg>
