<?xml version="1.0" encoding="utf-8"?>
<!-- Generator: Adobe Illustrator 16.0.0, SVG Export Plug-In . SVG Version: 6.00 Build 0)  -->
<!DOCTYPE svg PUBLIC "-//W3C//DTD SVG 1.1//EN" "http://www.w3.org/Graphics/SVG/1.1/DTD/svg11.dtd">
<svg version="1.1" id="Layer_1" xmlns="http://www.w3.org/2000/svg" xmlns:xlink="http://www.w3.org/1999/xlink" x="0px" y="0px"
	 width="1086.305px" height="483.297px" viewBox="68.848 154.352 1086.305 483.297"
	 enable-background="new 68.848 154.352 1086.305 483.297" xml:space="preserve">
<g>
	<path fill="#FFE989" d="M836.213,446.193c4.655-49.795,178.954-36.758,178.108-157.1c-0.785-108.699-239.81-132.186-445.478-73.893
		C346.03,278.385,200.603,345.671,217.223,439.44c18.741,105.817,160.88,194.291,329.239,198.046
		c119.73,2.647,259.95-27.007,301.363-93.362C877.859,496.018,833.446,475.47,836.213,446.193"/>
	<path fill="#00678F" d="M639.476,578.175c116.122-19.907,199.473-62.163,189.49-118.74c-8.672-49.212-72.845-74.794,16.852-97.728
		c275.575-70.371,137.858-264.576-278.806-190.974c-169.698,29.947-367.659,127.122-349.76,268.678
		C232.995,564.352,444.051,611.729,639.476,578.175"/>
</g>
<g>
	<path fill="#FFE989" d="M335.787,502.683c-0.234,7.362-4.918,11.873-12.95,12.136c-8.934,0.32-14.609-5.064-14.958-14.174
		c-0.38-9.108,4.917-14.93,13.62-15.249c8.117-0.32,13.065,3.551,13.879,10.768l-8.613,0.321l-4.86-4.104
		c-3.55,0.115-5.181,2.766-5.005,7.886c0.202,5.123,2.241,7.685,5.85,7.598c2.735-0.146,4.394-1.863,4.509-4.891"/>
	<path fill="#FFE989" d="M372.544,505.824c3.813-0.115,5.413-2.677,5.151-7.886c-0.233-5.27-1.894-7.654-5.734-7.479
		c-3.811,0.146-5.354,2.647-5.18,7.886C366.984,503.584,368.731,505.999,372.544,505.824 M371.699,483.415
		c8.965-0.349,14.699,5.064,15.077,14.145c0.349,9.109-4.917,14.931-13.911,15.31c-8.993,0.377-14.755-5.094-15.137-14.174
		C357.353,489.614,362.737,483.765,371.699,483.415"/>
	<polyline fill="#FFE989" points="409.826,482.659 418.788,482.31 419.573,502.798 431.769,502.304 432.089,509.725 
		410.901,510.568 	"/>
	<polyline fill="#FFE989" points="454.12,480.913 463.113,480.593 463.87,501.052 476.063,500.587 476.412,508.007 455.227,508.852 
			"/>
	<polyline fill="#FFE989" points="498.442,479.196 520.793,478.323 521.055,484.986 507.641,485.511 507.815,489.236 519.106,488.8 
		519.34,495.231 508.077,495.668 508.192,499.917 522.134,499.393 522.424,506.203 499.521,507.076 	"/>
	<path fill="#FFE989" d="M572.278,493.398c-0.263,7.392-4.948,11.844-12.981,12.105c-8.934,0.379-14.637-5.035-14.958-14.115
		c-0.349-9.138,4.917-14.93,13.62-15.278c8.148-0.35,13.097,3.551,13.911,10.738l-8.645,0.379l-4.857-4.133
		c-3.552,0.146-5.183,2.794-5.008,7.915c0.206,5.095,2.241,7.655,5.85,7.568c2.737-0.146,4.396-1.863,4.54-4.861"/>
	<polyline fill="#FFE989" points="601.031,482.484 592.971,482.834 592.708,475.47 617.62,474.481 617.882,481.815 610.024,482.165 
		610.781,502.711 601.816,503.09 	"/>
	<rect x="640.32" y="473.259" fill="#FFE989" width="10.216" height="28.289"/>
	<path fill="#FFE989" d="M688.516,493.398c3.87-0.146,5.413-2.679,5.181-7.889c-0.234-5.267-1.895-7.596-5.734-7.479
		c-3.811,0.175-5.354,2.648-5.18,7.916C682.984,491.186,684.702,493.603,688.516,493.398 M687.698,470.989
		c8.938-0.321,14.698,5.063,15.049,14.172c0.35,9.109-4.921,14.931-13.913,15.279c-8.934,0.379-14.756-5.034-15.104-14.145
		C673.352,477.188,678.736,471.366,687.698,470.989"/>
	<polyline fill="#FFE989" points="725.825,470.231 734.322,469.941 742.676,482.602 744.45,486.501 744.072,482.717 
		743.549,469.533 752.105,469.213 753.181,497.123 744.684,497.502 736.33,484.871 734.469,480.971 734.934,484.784 
		735.429,497.851 726.9,498.171 	"/>
	<path fill="#FFE989" d="M465.063,394.244c-16.209,6.083-15.717-53.549-0.145-61.669
		C474.899,327.336,481.214,388.162,465.063,394.244 M242.977,459.202c-19.118-8.382-9.049-66.82,5.968-58.177
		C261.081,408.011,259.653,466.507,242.977,459.202 M193.852,472.386l-13.037-12.165l8.934-3.755L193.852,472.386z M125.635,473.608
		c-14.029,6.11-28.114,5.965-37.718-0.846c7.306-10.506,26.252-15.6,37.893-10.128C126.77,466.303,129.417,470.261,125.635,473.608
		 M527.373,387.144c2.183-7.655-5.996-5.705-6.286-5.181c-3.436,10.39-3.698,11.787-13.009,13.271
		c-19.236-0.32-11.235-85.824-40.658-78.957c-34.02,9.313-36.408,53.666-35.155,71.478c-14.874,4.365-9.255-28.755-23.573-32.741
		c-16.007-4.308-17.142,14.755-21.975,23.05l-5.529-11.759c-38.153-4.104-5.646,34.313-22.497,47.352
		c-14.986-12.398-3.2-29.568-22.146-39.347c-10.856-2.591-11.001,11.495-16.268,15.307l-7.83-8.876
		c-4.917,2.066-12.077,1.688-15.656,5.763c-0.555,21.217,2.532,60.592-9.43,61.115c-22.438,0.845-7.714-59.661-33.935-66.324
		c-34.69,5.354-30.471,35.825-48.195,48.397l-24.708-92.576l-12.367,3.317c3.754,31.781,11.728,68.305,21.245,100.929
		c0,0,0.583,5.705-11.438,11.845c-6.782,3.405-26.57-1.223-29.19-6.838c-11.35-24.33-20.72-95.226-20.72-95.226
		c-6.607,1.747-20.315,3.085-23.109,10.041c5.937,28.114,7.917,60.388,18.188,84.224c-13.97-1.194-28.956-1.659-40.512,7.712
		c-8.176,4.48-17.519,13.242-12.224,24.331c14.175,14.958,36.991,12.747,58.148,7.1c7.19,4.338,5.56,31.112,27.852,48.808
		c4.075,0.669,13.854-3.728,17.958-8.731c-0.845-20.866-31.285-58.787-9.489-56.021c21.828,2.764,27.736,13.882,27.736,13.882
		c8.382,24.126,8.962,29.83,28.289,20.373l-14.175-61.846l9.052-10.623c0.29,15.569,1.861,32.509,9.632,43.307
		c6.143,8.526,15.744,13.562,27.356,7.361c7.452-4.364,13.184-11.35,15.803-19.062l11.699,8.759
		c19.819,0.961,23.43-25.581,28.026-37.745c4.773-0.292,4.222,19.585,9.227,19.993l13.271-3.726
		c1.047-13.563-11.117-29.831-4.396-42.576c18.248,6.811,6.694,27.88,25.494,36.931c14.057-2.998,15.747-22.991,21.422-33.817
		l6.199,20.168c34.048,1.834,7.303-25.377,19.033-42.548c13.442,3.377,4.044,20.751,13.152,28.492
		c14.058,11.846,16.705-8.148,23.951-13.998c4.337,7.394,8.326,20.255,26.602,19.207c11.438-1.104,17.085-9.225,23.981-21.244
		c7.537,10.506,16.879,13.271,27.995,7.422C521.667,402.363,525.77,392.847,527.373,387.144"/>
	<path fill="#FFE989" d="M1049.683,255.365c-17.84-7.916-8.18-66.907,9.021-60.97
		C1075.936,200.302,1069.529,264.358,1049.683,255.365 M880.447,276.202c1.631,12.02-1.191,28.608-10.941,32.16
		c-13.505-3.143-18.831-19.325-19.761-33.761C857.66,267.616,879.487,263.949,880.447,276.202 M723.876,329.753
		c-16.764-5.879-7.655-65.308,7.041-61.466C746.108,272.331,750.823,339.153,723.876,329.753 M621.957,364.792
		c-2.416-9.139-6.666-32.362-10.013-46.943c22.09-5.094,58.411-16.764,63.735,3.318
		C679.114,339.792,638.924,362.435,621.957,364.792 M595.472,254.696c23.981-5.414,56.637-7.276,59.401-1.397
		c2.646,18.014-30.88,38.707-49.826,40.86C602.194,285.689,597.249,264.416,595.472,254.696 M917.118,223.439
		c11.643-0.204,17.084,17.143,14.842,26.309c-1.543,5.268-16.093,9.138-20.081,5.326
		C909.203,248.001,907.108,226.116,917.118,223.439 M1112.021,236.768c-3.35,7.945-0.846,8.586-10.129,11.844
		c-28.261,5.239-12.807-57.448-21.564-61c-8.703,0.379-13.736-13.329-29.162-6.838c-38.734,23.078-21.101,81.75-37.92,88.269
		c-14.436-1.455-3.115-36.494-8.323-53.025c-4.452-16.821-28.435-4.161-39.521-1.979c-3.958-5.937-10.216-5.821-16.563-3.347
		c1.807,21.391,21.946,49.94,1.341,78.113c-20.984,16.327-32.888-8.412-34.372-19.121c0,0,18.831,2.008,27.503-10.274
		c12.72-18.101-3.606-47.874-19.438-51.454c-8.441-1.659-19.093,2.183-25.613,10.769c-8.207,16.821-5.527,26.861-6.255,38.736
		c-4.746-0.292-25.117-13.795-47.965,3.084c-6.37-27.588-8.902-55.236-5.061-75.202l-18.946,5.093
		c-11.089,48.252,31.809,113.327-0.408,124.27c-12.863-16.095,5.441-41.268-13.998-52.503c-10.215,2.736-19.588,2.853-30.384,0.292
		l-5.647,8.178l7.16,17.986c0,11.729,9.488,37.718-2.329,40.279c-11.146,2.619-13.765-50.785-13.765-50.785
		c-0.087-17.928-16.791-6.636-19.441-22.351c-10.68-4.947-17.812-1.104-27.82,5.471c-15.921,16.968-17.493,28.754-19.616,47.177
		c-10.243-12.834-32.245-15.541-48.922-16.531c13.067-7.975,23.923-18.714,27.153-29.947c1.834-10.622-0.523-21.681-20.779-25.056
		c-42.782-2.27-83.905,3.87-121.33,31.051c-8.906,7.625-14.729,17.986-6.199,26.601c24.622,4.366,22.089-28.522,45.545-25.437
		c13.823,4.919,7.83,21.944,15.338,32.45c-4.54,5.093-14.347,6.345-18.014,7.334c-11.584,3.115-2.301,14.698-3.436,22.002
		l22.729-6.286c3.523,5.909,6.521,28.142,10.973,41.821c-1.425,12.106-20.195,6.169-25.376,16.18
		c5.558,14.873,20.253,7.8,31.69,6.752c4.861,6.461,21.304,22.759,29.046,13.679c-1.571-5.85-3.726-14.608,1.136-19.79
		c28.958-8.557,56.576-30.791,60.884-61.611c6.956,18.073,7.596,27.647,29.626,35.04c20.691,2.649,30.852-19.179,30.852-19.179
		c7.506,10.507,17.372,12.543,29.916,6.81c23.138-22.379,0.06-61.087,9.053-62.512l6.08,2.241
		c1.021,18.509,1.517,37.863,17.287,50.056c15.252,4.541,20.664-13.299,25.554-18.508c3.435,1.396,6.112,6.169,6.112,6.169
		c12.484,10.303,23.66,9.662,35.214,0.35c8.965-10.215,12.544-18.976,13.33-37.748c11.612,14.086,20.371,28.725,50.287,23.661
		c10.159-5.85,16.327-12.543,22.033-23.457c6.926-15.134,2.589-37.805-2.271-55.994c3.112-0.058,20.604-4.772,22.845-2.241
		c3.349,23.544-3.317,52.646,14.405,57.653c14.901,3.842,20.054-5.355,26.745-16.88c0,0,6.461,8.818,11.612,10.564
		c15.803,3.55,22.032-6.693,30.502-15.948c9.98,5.122,20.661,7.886,32.623,0.087
		C1113.359,251.261,1118.947,248.176,1112.021,236.768"/>
	<path fill="#FFE989" d="M525.104,334.845c-5.239,3.754-13.533,10.652-4.803,16.879c12.834-7.305,27.82-6.636,32.012-20.284
		C542.708,324.659,536.073,335.049,525.104,334.845"/>
	<path fill="#EE3524" d="M471.086,379.431c-16.181,6.054-15.716-53.549-0.115-61.669
		C480.896,312.523,487.238,373.349,471.086,379.431 M249.032,444.417c-19.18-8.411-9.08-66.877,5.937-58.206
		C267.105,393.226,265.649,451.722,249.032,444.417 M199.849,457.571l-13.041-12.164l8.965-3.754L199.849,457.571z M131.631,458.794
		c-14,6.083-28.085,5.967-37.718-0.813c7.334-10.595,26.28-15.629,37.92-10.157C132.766,451.46,135.442,455.476,131.631,458.794
		 M533.396,372.358c2.184-7.683-5.968-5.762-6.285-5.209c-3.437,10.331-3.667,11.757-13.041,13.271
		c-19.205-0.349-11.264-85.825-40.627-78.956c-34.052,9.283-36.438,53.665-35.187,71.476c-14.871,4.366-9.224-28.753-23.573-32.711
		c-15.975-4.365-17.109,14.755-21.971,23.021l-5.5-11.815c-38.154-4.016-5.646,34.371-22.467,47.409
		c-15.019-12.398-3.23-29.598-22.208-39.348c-10.827-2.59-11.001,11.525-16.24,15.279l-7.827-8.847
		c-4.917,2.066-12.077,1.659-15.688,5.733c-0.524,21.246,2.531,60.621-9.398,61.145c-22.438,0.845-7.742-59.66-33.963-66.325
		c-34.69,5.326-30.412,35.855-48.195,48.399l-24.708-92.577l-12.339,3.318c3.754,31.779,11.728,68.305,21.273,100.898
		c0,0,0.523,5.733-11.494,11.874c-6.754,3.436-26.542-1.191-29.162-6.866c-11.35-24.272-20.751-95.196-20.751-95.196
		c-6.576,1.746-20.284,3.085-23.078,10.069c5.938,28.085,7.945,60.333,18.161,84.224c-13.97-1.192-28.928-1.688-40.512,7.654
		c-8.148,4.512-17.49,13.301-12.195,24.358c14.116,14.959,37.02,12.747,58.092,7.103c7.275,4.336,5.616,31.11,27.908,48.775
		c4.044,0.669,13.823-3.695,17.958-8.701c-0.845-20.838-31.316-58.76-9.489-56.022c21.855,2.733,27.706,13.882,27.706,13.882
		c8.413,24.098,8.993,29.801,28.319,20.372l-14.204-61.844l9.08-10.622c0.234,15.568,1.893,32.537,9.632,43.304
		c6.14,8.528,15.716,13.563,27.356,7.334c7.452-4.306,13.155-11.32,15.775-19.033l11.728,8.79
		c19.819,0.961,23.458-25.61,28.026-37.745c4.774-0.35,4.223,19.557,9.228,19.992l13.271-3.726
		c1.076-13.62-11.147-29.83-4.396-42.607c18.248,6.812,6.693,27.91,25.494,36.933c14.057-3.026,15.716-22.963,21.422-33.876
		l6.198,20.199c34.021,1.891,7.247-25.351,19.033-42.521c13.443,3.405,4.018,20.78,13.153,28.493
		c14.029,11.813,16.705-8.208,23.951-14.057c4.337,7.45,8.325,20.284,26.601,19.266c11.438-1.105,17.054-9.256,23.982-21.246
		c7.506,10.477,16.848,13.301,27.967,7.421C527.663,387.55,531.794,378.034,533.396,372.358"/>
	<path fill="#EE3524" d="M1055.646,240.552c-17.779-7.887-8.089-66.907,9.053-60.972
		C1081.928,185.489,1075.642,249.515,1055.646,240.552 M886.472,261.389c1.604,12.049-1.19,28.608-10.94,32.188
		c-13.563-3.201-18.831-19.383-19.791-33.759C863.685,252.862,885.512,249.136,886.472,261.389 M729.9,314.938
		c-16.823-5.908-7.627-65.336,7.041-61.407C752.134,257.548,756.848,324.368,729.9,314.938 M627.981,349.978
		c-2.416-9.108-6.694-32.361-9.984-46.941c22.062-5.094,58.383-16.735,63.708,3.288C685.167,324.951,644.92,347.563,627.981,349.978
		 M601.496,239.911c23.923-5.441,56.636-7.334,59.37-1.425c2.649,18.014-30.877,38.735-49.795,40.802
		C608.219,270.906,603.271,249.573,601.496,239.911 M923.086,208.626c11.696-0.204,17.109,17.113,14.87,26.309
		c-1.515,5.268-16.093,9.167-20.081,5.355C915.197,233.218,913.102,211.303,923.086,208.626 M1118.015,221.955
		c-3.316,7.945-0.842,8.586-10.097,11.874c-28.261,5.209-12.835-57.478-21.594-61c-8.676,0.349-13.708-13.329-29.161-6.897
		c-38.738,23.107-21.103,81.808-37.894,88.298c-14.435-1.455-3.144-36.496-8.322-53.055c-4.452-16.764-28.463-4.133-39.552-1.921
		c-3.929-5.995-10.188-5.879-16.561-3.435c1.833,21.42,21.974,49.999,1.368,78.142c-21.014,16.327-32.889-8.382-34.399-19.091
		c0,0,18.858,2.007,27.53-10.302c12.719-18.044-3.607-47.816-19.411-51.426c-8.469-1.629-19.12,2.212-25.669,10.769
		c-8.179,16.821-5.473,26.833-6.258,38.766c-4.743-0.292-25.086-13.795-47.935,3.056c-6.372-27.59-8.934-55.239-5.063-75.203
		l-18.975,5.063c-11.116,48.313,31.84,113.327-0.35,124.328c-12.892-16.093,5.356-41.268-14.025-52.501
		c-10.216,2.736-19.559,2.852-30.415,0.291l-5.615,8.12l7.188,18.043c0,11.7,9.46,37.659-2.356,40.22
		c-11.176,2.619-13.766-50.785-13.766-50.785c-0.117-17.898-16.791-6.665-19.44-22.322c-10.708-4.947-17.813-1.077-27.854,5.5
		c-15.89,16.937-17.488,28.666-19.557,47.176c-10.303-12.893-32.273-15.599-49.009-16.56c13.127-7.975,23.95-18.714,27.212-29.947
		c1.834-10.622-0.523-21.681-20.809-25.058c-42.754-2.27-83.875,3.842-121.302,31.053c-8.937,7.596-14.698,17.986-6.17,26.63
		c24.649,4.336,22.03-28.55,45.517-25.465c13.822,4.917,7.857,21.943,15.339,32.45c-4.54,5.093-14.348,6.344-17.986,7.304
		c-11.641,3.173-2.357,14.698-3.493,22.061l22.729-6.286c3.521,5.878,6.549,28.171,11.001,41.791
		c-1.456,12.078-20.229,6.199-25.376,16.152c5.557,14.902,20.225,7.887,31.689,6.752c4.861,6.49,21.305,22.788,29.046,13.708
		c-1.57-5.85-3.693-14.668,1.137-19.79c28.898-8.586,56.604-30.82,60.883-61.611c6.957,18.073,7.596,27.647,29.626,35.069
		c20.691,2.647,30.849-19.179,30.849-19.179c7.509,10.478,17.405,12.514,29.919,6.84c23.139-22.381,0.061-61.146,9.052-62.601
		l6.081,2.27c1.021,18.51,1.544,37.893,17.287,50.116c15.279,4.481,20.665-13.358,25.522-18.569
		c3.465,1.397,6.111,6.171,6.111,6.171c12.485,10.331,23.661,9.662,35.245,0.35c8.992-10.215,12.515-18.946,13.388-37.748
		c11.556,14.115,20.313,28.725,50.229,23.719c10.128-5.878,16.327-12.63,22.033-23.515c6.867-15.134,2.589-37.805-2.271-56.053
		c3.084-0.028,20.634-4.685,22.815-2.153c3.405,23.486-3.289,52.646,14.435,57.653c14.901,3.812,20.054-5.384,26.718-16.909
		c0,0,6.489,8.846,11.641,10.564c15.774,3.58,22.002-6.665,30.442-15.978c9.98,5.151,20.691,7.975,32.683,0.058
		C1119.355,236.419,1124.972,233.335,1118.015,221.955"/>
	<path fill="#EE3524" d="M531.127,320.032c-5.239,3.725-13.533,10.652-4.861,16.909c12.895-7.305,27.911-6.693,32.071-20.313
		C548.676,309.846,542.128,320.236,531.127,320.032"/>
	<polyline fill="#EE3524" points="1135.651,222.421 1136.206,224.05 1131.52,225.564 1135.595,237.729 1133.762,238.398 
		1129.714,226.175 1125.059,227.775 1124.507,226.088 	"/>
	<polyline fill="#EE3524" points="1137.369,221.868 1140.017,220.994 1147.875,231.297 1147.934,218.317 1150.553,217.444 
		1155.152,231.239 1153.406,231.821 1150.699,223.701 1150.23,222.274 1149.593,220.151 1149.505,233.13 1147.645,233.712 
		1139.813,223.439 1139.93,223.818 1140.484,225.418 1141.008,226.902 1143.715,235.021 1141.969,235.633 	"/>
</g>
</svg>
